<?xml version="1.0" encoding="utf-8"?>
<!-- Generator: Adobe Illustrator 19.0.0, SVG Export Plug-In . SVG Version: 6.00 Build 0)  -->
<svg version="1.1" id="Layer_1" xmlns="http://www.w3.org/2000/svg" xmlns:xlink="http://www.w3.org/1999/xlink" x="0px" y="0px"
	 viewBox="-95 -11.9 108.2 122.9" style="enable-background:new -95 -11.9 108.2 122.9;" xml:space="preserve">
<style type="text/css">
	.st0{fill:#2A93C9;}
</style>
<g>
	<path class="st0" d="M-40.9-11.9c5.7,0,10.4,7.3,13.7,19.1c1.1,4.1,2.1,8.8,2.8,13.9c4.8-1.9,9.3-3.4,13.4-4.5
		C0.8,13.4,9.5,14,12.3,18.9c2.8,4.9-1.1,12.7-9.7,21.3c-3,3-6.6,6.2-10.6,9.4c1.6,1.3,3.2,2.6,4.6,3.8c-1.3,0.9-2.4,2.2-3.2,3.6
		c-1.7-1.4-3.5-2.9-5.4-4.4c-3.3,2.5-7,5-10.8,7.5c-0.2,4.6-0.6,8.9-1.1,13.1c5,2,9.8,3.6,14,4.8c9.6,2.5,16.3,2.7,17.9,0
		c0.8-1.5,0.3-3.8-1.5-6.7c1.4-0.6,2.7-1.6,3.8-2.8c2.9,4.7,3.7,8.8,2,11.8C9.5,85.1,0.8,85.7-11,82.5c-4.1-1.1-8.6-2.6-13.4-4.5
		c-0.8,5.1-1.7,9.8-2.8,13.9c-3.2,11.8-8,19.1-13.7,19.1s-10.5-7.3-13.7-19.1c-1.1-4.1-2.1-8.8-2.8-13.9c-1.7,0.7-3.4,1.3-5.1,1.9
		c-0.1-1.7-0.7-3.2-1.5-4.6C-62,74.7-60,74-58,73.1c-0.5-4.2-0.8-8.5-1.1-13.1c-3.8-2.5-7.5-5-10.8-7.5c-4.3,3.3-8,6.6-11.1,9.7
		c-7,7.1-10.5,12.8-8.9,15.6c0.9,1.5,3.4,2.2,7.1,2c0,0.3,0,0.6,0,0.9c0,1.3,0.3,2.6,0.7,3.7c-5.9,0.3-10.1-1.1-11.9-4.2
		c-2.8-4.9,1.1-12.7,9.7-21.3c3-3,6.6-6.2,10.6-9.4c-4-3.2-7.6-6.4-10.6-9.4c-8.6-8.7-12.5-16.5-9.7-21.3c2.8-4.9,11.5-5.4,23.3-2.3
		c4.1,1.1,8.6,2.6,13.4,4.5c0.3-1.9,0.6-3.6,0.9-5.4c1.4,0.7,3,1.1,4.6,1.1h0.1c-0.4,2-0.7,4-1,6.2c3.8,1.7,7.8,3.5,11.9,5.6
		c4.1-2.1,8-4,11.9-5.6c-0.8-5.4-1.7-10.3-2.9-14.5C-34.5-1.1-37.7-7-40.9-7c-1.8,0-3.5,1.8-5.2,5.1c-1.3-0.9-2.8-1.5-4.4-1.7
		C-47.8-8.9-44.5-11.9-40.9-11.9L-40.9-11.9z M1.8,54.9c3.7,0,6.7,3,6.7,6.7s-3,6.7-6.7,6.7s-6.7-3-6.7-6.7S-1.9,54.9,1.8,54.9
		L1.8,54.9z M-72.7,73.9c3.7,0,6.7,3,6.7,6.7s-3,6.7-6.7,6.7c-3.7,0-6.7-3-6.7-6.7S-76.3,73.9-72.7,73.9L-72.7,73.9z M-51.8-0.1
		c3.7,0,6.7,3,6.7,6.6s-3,6.6-6.7,6.6c-3.7,0-6.7-3-6.7-6.6S-55.5-0.1-51.8-0.1L-51.8-0.1z M-40.9,40.7c4.9,0,8.8,4,8.8,8.8
		s-4,8.8-8.8,8.8s-8.8-4-8.8-8.8S-45.8,40.7-40.9,40.7L-40.9,40.7z M-69.9,46.5c3.3-2.5,7-5,10.8-7.5c0.2-4.6,0.6-9,1.1-13.1
		c-5-2-9.8-3.6-14-4.8c-9.6-2.5-16.3-2.7-17.9,0C-91.5,24-88,29.8-81,36.8C-77.9,39.9-74.2,43.2-69.9,46.5L-69.9,46.5z M-29,76.2
		c-3.8-1.7-7.8-3.5-11.9-5.6c-4.1,2.1-8,4-11.9,5.6c0.8,5.4,1.7,10.3,2.9,14.5c2.6,9.6,5.8,15.5,9,15.5c3.2,0,6.4-5.9,9-15.5
		C-30.8,86.4-29.8,81.5-29,76.2L-29,76.2z M-46.1,67.8c-1.3-0.7-2.7-1.5-4-2.3l0,0c0,0-0.1-0.1-0.1-0.1c-1.3-0.8-2.6-1.5-3.9-2.3
		c0.2,2.8,0.4,5.4,0.7,8C-51,70.1-48.5,69-46.1,67.8L-46.1,67.8z M-35.7,31.4c1.3,0.7,2.7,1.5,4,2.3c1.3,0.8,2.7,1.5,4,2.3
		c-0.2-2.8-0.4-5.4-0.7-8C-30.8,29-33.2,30.1-35.7,31.4L-35.7,31.4z M-22.7,39.1c3.8,2.5,7.4,5,10.8,7.5c4.3-3.3,8-6.6,11.1-9.7
		c7-7,10.5-12.8,8.9-15.6c-1.6-2.8-8.3-2.6-17.9,0c-4.2,1.1-9,2.7-14,4.8C-23.3,30.1-22.9,34.5-22.7,39.1L-22.7,39.1z M-15.9,49.6
		c-2.1-1.5-4.3-3.1-6.6-4.6c0,1.5,0.1,3,0.1,4.6s0,3.1-0.1,4.6C-20.2,52.6-18,51.1-15.9,49.6L-15.9,49.6z M-27.4,41.8
		c-2.2-1.3-4.4-2.7-6.7-4l0,0c-2.3-1.3-4.5-2.6-6.8-3.8c-2.3,1.2-4.5,2.5-6.8,3.8l0,0h0c-2.3,1.3-4.5,2.7-6.7,4
		c-0.1,2.5-0.1,5.1-0.1,7.8c0,2.6,0,5.2,0.1,7.8c2.1,1.3,4.3,2.7,6.6,3.9c0,0,0.1,0,0.1,0l0,0c2.3,1.3,4.6,2.6,6.8,3.8
		c2.2-1.2,4.5-2.4,6.7-3.7c0,0,0.1-0.1,0.1-0.1l0,0c2.3-1.3,4.5-2.6,6.6-4c0.1-2.5,0.1-5.1,0.1-7.8C-27.3,46.9-27.3,44.3-27.4,41.8
		L-27.4,41.8z M-46.1,31.4c-2.5-1.2-4.9-2.4-7.3-3.4c-0.3,2.6-0.5,5.3-0.7,8c1.3-0.8,2.6-1.6,4-2.3l0,0
		C-48.8,32.8-47.4,32.1-46.1,31.4L-46.1,31.4z M-65.9,49.6c2.1,1.5,4.3,3.1,6.6,4.6c0-1.5,0-3.1,0-4.6s0-3.1,0-4.6
		C-61.6,46.5-63.8,48-65.9,49.6L-65.9,49.6z M-35.7,67.8c2.5,1.2,4.9,2.4,7.3,3.4c0.3-2.6,0.5-5.3,0.7-8c-1.3,0.8-2.6,1.6-4,2.3
		l-0.1,0C-33.1,66.3-34.4,67.1-35.7,67.8L-35.7,67.8z"/>
</g>
</svg>
