<?xml version="1.0" encoding="utf-8"?>
<!-- Generator: Adobe Illustrator 19.0.0, SVG Export Plug-In . SVG Version: 6.00 Build 0)  -->
<svg version="1.1" id="Layer_1" xmlns="http://www.w3.org/2000/svg" xmlns:xlink="http://www.w3.org/1999/xlink" x="0px" y="0px"
	 viewBox="-94 -11.9 110.4 123.9" style="enable-background:new -94 -11.9 110.4 123.9;" xml:space="preserve">
<style type="text/css">
	.st0{fill:#2A93C9;}
</style>
<g>
	<path class="st0" d="M-49,96.8c-10.5-2.3-19.8-8-26.4-16c-7-8.3-11.2-19.1-11.2-30.8c0-11,3.7-21.2,10-29.2
		c6.4-8.3,15.4-14.4,25.8-17.1l-1.8-6.9C-64.6,0-75,7-82.3,16.5c-7.2,9.3-11.5,20.9-11.5,33.6c0,13.4,4.8,25.8,12.9,35.3
		c8,9.5,19.1,16.3,31.8,18.7l0,7.4l13.4-11l-13.4-11V96.8z"/>
	<path class="st0" d="M3.1,14.5c-8-9.4-19-16-31.6-18.4v-7.5L-42-0.4l13.4,11V3.3C-18.1,5.6-9,11.2-2.3,19C4.8,27.4,9,38.2,9,50.1
		c0,10.4-3.3,20-8.9,27.8c-5.6,7.8-13.5,13.9-22.7,17.2c-0.3,0.1-0.6,0.2-0.8,0.3l1.1,3.4l1.1,3.4c11-3.7,20.4-10.8,27.1-20.1
		c6.5-9,10.3-20,10.3-32C16.2,36.5,11.2,24.1,3.1,14.5z"/>
	<path class="st0" d="M-21.8,74.2c0.5-0.2,0.9-0.5,1.3-0.9l0,0l4-4c0.4-0.4,0.7-0.8,0.9-1.3l-0.1,0.1c0.2-0.5,0.3-1,0.3-1.6
		c0-0.5-0.1-1.1-0.3-1.5c-0.2-0.5-0.5-0.9-0.9-1.3l-2.2-2.2c0.1-0.1,0.2-0.3,0.2-0.4c0.2-0.4,0.4-0.9,0.7-1.4
		c0.2-0.5,0.4-0.9,0.6-1.4c0.1-0.2,0.1-0.4,0.2-0.5h3.6c0.6,0,1.1-0.1,1.6-0.3c0.5-0.2,0.9-0.5,1.3-0.9c0.4-0.4,0.7-0.8,0.9-1.3
		c0.2-0.5,0.3-1,0.3-1.5v-5.7c0-0.5-0.1-1-0.3-1.5c-0.2-0.4-0.5-0.9-0.9-1.3l0,0c-0.4-0.4-0.8-0.7-1.3-0.9c-0.5-0.2-1-0.3-1.6-0.3
		h-3.2c0-0.2-0.1-0.3-0.1-0.5c-0.1-0.5-0.3-1-0.5-1.4c0,0,0,0,0-0.1c-0.2-0.5-0.4-0.9-0.6-1.3c-0.1-0.1-0.2-0.3-0.2-0.5l2.5-2.6
		c0.4-0.4,0.7-0.8,0.9-1.3s0.3-1,0.3-1.5s-0.1-1.1-0.3-1.5c-0.2-0.5-0.5-0.9-0.9-1.3l0,0l-4-4c-0.4-0.4-0.8-0.7-1.3-0.9
		c-0.5-0.2-1-0.3-1.5-0.3s-1.1,0.1-1.5,0.3c-0.5,0.2-0.9,0.5-1.3,0.9l-2.2,2.2c-0.1-0.1-0.3-0.2-0.4-0.2c-0.4-0.2-0.9-0.4-1.4-0.7
		c-0.5-0.2-0.9-0.4-1.4-0.6c-0.2-0.1-0.3-0.1-0.5-0.2v-3.6c0-0.6-0.1-1.1-0.3-1.5c-0.2-0.5-0.5-0.9-0.9-1.3
		c-0.4-0.4-0.8-0.7-1.3-0.9c-0.5-0.2-1-0.3-1.5-0.3H-41c-0.5,0-1,0.1-1.5,0.3c-0.5,0.2-0.9,0.5-1.3,0.9l0,0
		c-0.4,0.4-0.7,0.8-0.9,1.3c-0.2,0.5-0.3,1-0.3,1.5v3.2c-0.2,0-0.3,0.1-0.5,0.1c-0.5,0.1-1,0.3-1.4,0.5c-0.5,0.2-0.9,0.4-1.4,0.6
		c-0.2,0.1-0.3,0.1-0.5,0.2l-2.5-2.5c-0.4-0.4-0.8-0.7-1.3-0.9c-0.5-0.2-1-0.3-1.6-0.3c-0.5,0-1.1,0.1-1.5,0.3
		c-0.5,0.2-0.9,0.5-1.3,0.9l-4,4c0,0,0,0,0,0c-0.4,0.4-0.6,0.8-0.8,1.3c-0.2,0.5-0.3,1-0.3,1.5c0,0.5,0.1,1,0.3,1.5
		c0.2,0.5,0.5,0.9,0.8,1.3l0,0l2.3,2.2c-0.1,0.1-0.2,0.3-0.2,0.4c-0.2,0.4-0.4,0.9-0.7,1.4c-0.2,0.5-0.4,0.9-0.6,1.4
		c-0.1,0.2-0.1,0.4-0.2,0.5H-64c-0.6,0-1.1,0.1-1.5,0.3c-0.5,0.2-0.9,0.5-1.3,0.9c-0.8,0.8-1.2,1.7-1.2,2.8v5.7c0,0.5,0.1,1,0.3,1.5
		c0.2,0.5,0.5,0.9,0.9,1.3l0,0c0.4,0.4,0.8,0.7,1.3,0.9c0.5,0.2,1,0.3,1.5,0.3h3.2c0,0.2,0.1,0.3,0.1,0.5c0.1,0.5,0.3,1,0.5,1.4
		c0.2,0.5,0.4,1,0.6,1.4c0.1,0.2,0.1,0.3,0.2,0.5l-2.5,2.5c-0.4,0.4-0.7,0.8-0.9,1.3c-0.2,0.5-0.3,1-0.3,1.6c0,0.6,0.1,1.1,0.3,1.6
		c0.2,0.5,0.5,0.9,0.9,1.3l4,4c0,0,0,0,0,0c0.4,0.4,0.8,0.6,1.3,0.8c0.5,0.2,1,0.3,1.5,0.3c0.5,0,1-0.1,1.5-0.3
		c0.5-0.2,0.9-0.5,1.3-0.8l0,0l2.2-2.3c0.1,0.1,0.3,0.2,0.4,0.2c0.4,0.2,0.9,0.4,1.4,0.7c0.5,0.2,0.9,0.4,1.4,0.6
		c0.2,0.1,0.3,0.1,0.5,0.2v3.6c0,0.6,0.1,1.1,0.3,1.5c0.2,0.5,0.5,0.9,0.9,1.3c0.4,0.4,0.8,0.7,1.3,0.9c0.5,0.2,1,0.3,1.5,0.3h5.7
		c0.5,0,1-0.1,1.5-0.3c0.5-0.2,0.9-0.5,1.3-0.9l0,0c0.4-0.4,0.7-0.8,0.9-1.3c0.2-0.5,0.3-1,0.3-1.5v-3.2c0.2,0,0.3-0.1,0.5-0.1
		c0.5-0.2,1-0.3,1.4-0.5c0,0,0,0,0.1,0c0.4-0.2,0.9-0.3,1.3-0.6c0.2-0.1,0.3-0.2,0.5-0.2l2.6,2.6c0.4,0.4,0.8,0.7,1.3,0.9
		c0.5,0.2,1,0.3,1.5,0.3S-22.3,74.4-21.8,74.2z M-29,52L-29,52c-0.1,0.6-0.3,1.3-0.6,1.9c-0.3,0.6-0.6,1.2-0.9,1.7
		c-0.3,0.5-0.7,1-1.2,1.5c-0.5,0.5-0.9,0.8-1.5,1.2c-0.5,0.3-1.1,0.6-1.7,0.9c0,0,0,0-0.1,0c-0.6,0.2-1.2,0.4-1.8,0.5
		c-0.7,0.1-1.3,0.2-2,0.2s-1.4-0.1-2-0.2c-0.6-0.1-1.3-0.3-1.9-0.6c-0.6-0.3-1.2-0.6-1.7-0.9c-0.5-0.4-1-0.8-1.5-1.2
		c-0.4-0.5-0.8-0.9-1.2-1.5c-0.3-0.5-0.7-1.1-0.9-1.7c0,0,0-0.1,0-0.1c-0.2-0.6-0.4-1.2-0.5-1.8c-0.1-0.6-0.2-1.3-0.2-2
		s0.1-1.3,0.2-2c0.1-0.7,0.3-1.3,0.6-1.9c0.3-0.6,0.6-1.2,0.9-1.7c0.3-0.5,0.7-1,1.2-1.5c0.5-0.5,0.9-0.8,1.5-1.2
		c0.5-0.3,1.1-0.7,1.7-0.9c0,0,0,0,0.1,0c0.6-0.2,1.2-0.4,1.8-0.5c0.6-0.1,1.3-0.2,2-0.2s1.3,0.1,2,0.2c0.7,0.1,1.3,0.3,1.9,0.6
		c0.6,0.3,1.2,0.6,1.7,0.9c0.5,0.3,1,0.8,1.5,1.2c0.4,0.5,0.8,0.9,1.2,1.5c0.3,0.5,0.6,1.1,0.9,1.7c0,0,0,0,0,0.1
		c0.2,0.6,0.4,1.2,0.5,1.8c0.1,0.7,0.2,1.3,0.2,2S-28.9,51.4-29,52z"/>
</g>
</svg>
