<?xml version="1.0" encoding="utf-8"?>
<!-- Generator: Adobe Illustrator 19.0.0, SVG Export Plug-In . SVG Version: 6.00 Build 0)  -->
<svg version="1.1" id="Layer_1" xmlns="http://www.w3.org/2000/svg" xmlns:xlink="http://www.w3.org/1999/xlink" x="0px" y="0px"
	 viewBox="-88 -10.6 122.9 120.6" style="enable-background:new -88 -10.6 122.9 120.6;" xml:space="preserve">
<style type="text/css">
	.st0{fill:#FFFFFF;}
</style>
<g>
	<path class="st0" d="M20.9,43.4c1.6-1.5,3.7-2.3,5.8-2.3c2.1,0,4.2,0.8,5.8,2.4l0.1,0.1c1.5,1.6,2.2,3.6,2.2,5.6c0,2-0.8,4-2.4,5.6
		C14.8,72.5-3.1,90-20.9,107.5c-0.1,0.1-0.1,0.1-0.2,0.2c-1.6,1.6-3.8,2.3-5.9,2.3s-4.2-0.8-5.8-2.4l-0.3-0.3
		c-17.5-17.5-35.1-34.9-52.6-52.4c-1.5-1.5-2.3-3.5-2.4-5.5c0-2,0.7-4,2.2-5.6l0.2-0.2c1.6-1.6,3.7-2.4,5.8-2.4s4.2,0.7,5.8,2.3
		l47.3,47.2L20.9,43.4L20.9,43.4z M18.9-8.4c1.6-1.5,3.7-2.3,5.8-2.3c2.1,0,4.2,0.8,5.8,2.4l0.1,0.1c1.5,1.6,2.2,3.6,2.2,5.6
		c0,2-0.8,4-2.4,5.6C13.2,20.4-3.8,38.2-20.9,55.8c-0.1,0.1-0.1,0.1-0.2,0.2c-1.6,1.6-3.8,2.3-5.9,2.3s-4.2-0.8-5.8-2.4
		c-17-17.5-33.8-35.1-50.8-52.6l-0.1-0.1c-1.5-1.5-2.3-3.5-2.3-5.5s0.7-4,2.2-5.6l0.1-0.1c1.6-1.6,3.7-2.4,5.8-2.4
		c2.1,0,4.2,0.7,5.8,2.3l45.2,47.2L18.9-8.4L18.9-8.4z"/>
</g>
</svg>
