<?xml version="1.0" encoding="utf-8"?>
<!-- Generator: Adobe Illustrator 19.0.0, SVG Export Plug-In . SVG Version: 6.00 Build 0)  -->
<svg version="1.1" id="Layer_1" xmlns="http://www.w3.org/2000/svg" xmlns:xlink="http://www.w3.org/1999/xlink" x="0px" y="0px"
	 viewBox="-89 -11.9 119.8 122.9" style="enable-background:new -89 -11.9 119.8 122.9;" xml:space="preserve">
<style type="text/css">
	.st0{fill:#FFFFFF;}
</style>
<g>
	<path class="st0" d="M-40.7-11.9c13.3,0,25.4,5.4,34.2,14.2S7.6,23.1,7.6,36.4c0,12.8-5,24.5-13.1,33.1c0.1,0.1,0.3,0.2,0.4,0.4
		l34.8,34.7c1.5,1.4,1.5,3.8,0,5.3c-1.4,1.5-3.8,1.5-5.3,0l-34.8-34.7c-0.2-0.2-0.4-0.5-0.6-0.7c-8.2,6.4-18.6,10.3-29.8,10.3
		c-13.3,0-25.4-5.4-34.2-14.2C-83.6,61.9-89,49.8-89,36.4S-83.6,11-74.8,2.3C-66.1-6.5-54-11.9-40.7-11.9L-40.7-11.9z M-11.9,7.7
		C-19.3,0.3-29.4-4.2-40.7-4.2S-62.1,0.3-69.4,7.7s-11.9,17.5-11.9,28.8s4.6,21.4,11.9,28.8c7.4,7.4,17.5,11.9,28.8,11.9
		c11.2,0,21.4-4.6,28.8-11.9C-4.6,57.8,0,47.7,0,36.4C0,25.2-4.6,15-11.9,7.7L-11.9,7.7z"/>
</g>
</svg>
