<?xml version="1.0" encoding="utf-8"?>
<!-- Generator: Adobe Illustrator 19.0.0, SVG Export Plug-In . SVG Version: 6.00 Build 0)  -->
<svg version="1.1" id="Layer_1" xmlns="http://www.w3.org/2000/svg" xmlns:xlink="http://www.w3.org/1999/xlink" x="0px" y="0px"
	 viewBox="-99 -11.9 100.3 122.9" style="enable-background:new -99 -11.9 100.3 122.9;" xml:space="preserve">
<style type="text/css">
	.st0{fill:#2A93C9;}
</style>
<g>
	<path class="st0" d="M-48.8,21.8c-9.2,0-16.6,7.4-16.6,16.6c0,9.2,7.5,16.6,16.6,16.6c9.1,0,16.5-7.5,16.5-16.6
		C-32.3,29.2-39.7,21.8-48.8,21.8z"/>
	<path class="st0" d="M-13.7,95.3H-41v-7.5c23.9-3.7,42.3-24.5,42.3-49.5c0-27.7-22.4-50.2-50.1-50.2S-99,10.6-99,38.3
		c0,25.4,18.9,46.4,43.4,49.7v7.3h-27.3c-1.9,0-3.5,1.6-3.5,3.4v8.8c0,1.9,1.5,3.4,3.4,3.4h69.3c1.9,0,3.4-1.5,3.4-3.4v-8.8
		C-10.3,96.8-11.8,95.3-13.7,95.3z M-80.4,38.3c0-17.5,14.1-31.6,31.6-31.6c17.4,0,31.6,14.1,31.6,31.6S-31.3,70-48.8,70
		S-80.4,55.8-80.4,38.3z"/>
	<path class="st0" d="M-48.8,14C-62.3,14-73.2,25-73.1,38.3c0,13.4,10.9,24.3,24.3,24.3c13.4,0,24.3-10.9,24.3-24.3
		C-24.5,25-35.4,14-48.8,14z M-48.8,59c-11.4,0-20.6-9.2-20.6-20.6c0-11.4,9.2-20.6,20.6-20.6c11.4,0,20.6,9.2,20.6,20.6
		C-28.2,49.8-37.4,59-48.8,59z"/>
</g>
</svg>
