<?xml version="1.0" encoding="utf-8"?>
<!-- Generator: Adobe Illustrator 19.0.0, SVG Export Plug-In . SVG Version: 6.00 Build 0)  -->
<svg version="1.1" id="圖層_1" xmlns="http://www.w3.org/2000/svg" xmlns:xlink="http://www.w3.org/1999/xlink" x="0px" y="0px"
	 viewBox="0 0 300 100" style="enable-background:new 0 0 300 100;" xml:space="preserve">
<g id="XMLID_1_">
	<path id="XMLID_3_" d="M5.9,10.6h19v62.9h30.6v15.9H5.9V10.6z"/>
	<path id="XMLID_5_" d="M61,49.6C61,23.7,75.6,9.1,97.1,9.1s36.1,14.7,36.1,40.5c0,25.8-14.6,41.3-36.1,41.3S61,75.4,61,49.6z
		 M113.9,49.6c0-15.3-6.5-24.3-16.8-24.3s-16.7,9-16.7,24.3c0,15.4,6.4,25,16.7,25S113.9,64.9,113.9,49.6z"/>
	<path id="XMLID_8_" d="M144.2,50.4c0-26.3,17.7-41.3,38.8-41.3c11.5,0,19.8,4.9,25.2,10.3l-10.1,12.1c-3.8-3.5-7.9-6.1-14.5-6.1
		c-11.6,0-20,9.1-20,24.5c0,15.7,7,24.8,21.6,24.8c2.9,0,5.8-0.7,7.5-2V59.8h-12.5V44.4h29.3v36.9c-5.5,5.3-15.2,9.6-26.3,9.6
		C161.4,90.9,144.2,77.1,144.2,50.4z"/>
	<path id="XMLID_10_" d="M221.9,49.6c0-25.8,14.6-40.5,36.1-40.5s36.1,14.7,36.1,40.5c0,25.8-14.6,41.3-36.1,41.3
		S221.9,75.4,221.9,49.6z M274.9,49.6c0-15.3-6.5-24.3-16.8-24.3s-16.7,9-16.7,24.3c0,15.4,6.4,25,16.7,25S274.9,64.9,274.9,49.6z"
		/>
</g>
</svg>
